HIERARCHY
ROOT Hips
{
    OFFSET   0.000000   0.000000   0.000000
    CHANNELS 6 Xposition Yposition Zposition Zrotation Xrotation Yrotation
    JOINT Chest
    {
        OFFSET   0.000000   8.007240   0.000000
        CHANNELS 3 Zrotation Xrotation Yrotation
        JOINT Chest2
        {
            OFFSET   0.000000  22.077100   0.000000
            CHANNELS 3 Zrotation Xrotation Yrotation
            JOINT Neck
            {
                OFFSET   0.000000  23.254800   0.000000
                CHANNELS 3 Zrotation Xrotation Yrotation
                JOINT Head
                {
                    OFFSET   0.000000  14.370000   1.956600
                    CHANNELS 3 Zrotation Xrotation Yrotation
                    End Site
                    {
                        OFFSET   0.000000  19.566000   0.000000
                    }
                }
            }
            JOINT LeftCollar
            {
                OFFSET   3.911900  19.017000  -0.467064
                CHANNELS 3 Zrotation Xrotation Yrotation
                JOINT LeftShoulder
                {
                    OFFSET  10.383700   0.000000   0.000000
                    CHANNELS 3 Zrotation Xrotation Yrotation
                    JOINT LeftElbow
                    {
                        OFFSET  26.662100   0.001476   0.000517
                        CHANNELS 3 Zrotation Xrotation Yrotation
                        JOINT LeftWrist
                        {
                            OFFSET  28.869000  -0.000025  -0.000106
                            CHANNELS 3 Zrotation Xrotation Yrotation
                            JOINT LeftFinger0
                            {
                                OFFSET   2.044660  -2.323460   3.252850
                                CHANNELS 3 Zrotation Xrotation Yrotation
                                JOINT LeftFinger01
                                {
                                    OFFSET   3.088130   0.000000   0.000000
                                    CHANNELS 3 Zrotation Xrotation Yrotation
                                    JOINT LeftFinger02
                                    {
                                        OFFSET   2.639460   0.000000   0.000000
                                        CHANNELS 3 Zrotation Xrotation Yrotation
                                        End Site
                                        {
                                            OFFSET   2.582190   0.000000   0.000000
                                        }
                                    }
                                }
                            }
                            JOINT LeftFinger1
                            {
                                OFFSET   8.364480   0.000000   3.252850
                                CHANNELS 3 Zrotation Xrotation Yrotation
                                JOINT LeftFinger11
                                {
                                    OFFSET   4.646930   0.000000   0.000000
                                    CHANNELS 3 Zrotation Xrotation Yrotation
                                    JOINT LeftFinger12
                                    {
                                        OFFSET   2.323460   0.000000   0.000000
                                        CHANNELS 3 Zrotation Xrotation Yrotation
                                        End Site
                                        {
                                            OFFSET   2.273050   0.000000   0.000000
                                        }
                                    }
                                }
                            }
                            JOINT LeftFinger2
                            {
                                OFFSET   8.364490   0.000015   1.078090
                                CHANNELS 3 Zrotation Xrotation Yrotation
                                JOINT LeftFinger21
                                {
                                    OFFSET   5.111620   0.000000   0.000000
                                    CHANNELS 3 Zrotation Xrotation Yrotation
                                    JOINT LeftFinger22
                                    {
                                        OFFSET   2.788160   0.000016   0.000000
                                        CHANNELS 3 Zrotation Xrotation Yrotation
                                        End Site
                                        {
                                            OFFSET   2.727660   0.000000   0.000000
                                        }
                                    }
                                }
                            }
                            JOINT LeftFinger3
                            {
                                OFFSET   7.899780   0.000017  -1.078090
                                CHANNELS 3 Zrotation Xrotation Yrotation
                                JOINT LeftFinger31
                                {
                                    OFFSET   4.646930   0.000000   0.000000
                                    CHANNELS 3 Zrotation Xrotation Yrotation
                                    JOINT LeftFinger32
                                    {
                                        OFFSET   2.323470   0.000000   0.000000
                                        CHANNELS 3 Zrotation Xrotation Yrotation
                                        End Site
                                        {
                                            OFFSET   2.273050   0.000000   0.000000
                                        }
                                    }
                                }
                            }
                            JOINT LeftFinger4
                            {
                                OFFSET   7.435090   0.000000  -3.252850
                                CHANNELS 3 Zrotation Xrotation Yrotation
                                JOINT LeftFinger41
                                {
                                    OFFSET   3.717550   0.000000   0.000000
                                    CHANNELS 3 Zrotation Xrotation Yrotation
                                    JOINT LeftFinger42
                                    {
                                        OFFSET   1.858770   0.000000   0.000000
                                        CHANNELS 3 Zrotation Xrotation Yrotation
                                        End Site
                                        {
                                            OFFSET   1.818440   0.000000   0.000000
                                        }
                                    }
                                }
                            }
                        }
                    }
                }
            }
            JOINT RightCollar
            {
                OFFSET  -3.911900  19.017000  -0.467063
                CHANNELS 3 Zrotation Xrotation Yrotation
                JOINT RightShoulder
                {
                    OFFSET -10.383700   0.000019   0.000000
                    CHANNELS 3 Zrotation Xrotation Yrotation
                    JOINT RightElbow
                    {
                        OFFSET -26.662100   0.001175   0.000102
                        CHANNELS 3 Zrotation Xrotation Yrotation
                        JOINT RightWrist
                        {
                            OFFSET -28.869000   0.000016  -0.000079
                            CHANNELS 3 Zrotation Xrotation Yrotation
                            JOINT RightFinger0
                            {
                                OFFSET  -2.044660  -2.323490   3.252850
                                CHANNELS 3 Zrotation Xrotation Yrotation
                                JOINT RightFinger01
                                {
                                    OFFSET  -3.088140   0.000000   0.000000
                                    CHANNELS 3 Zrotation Xrotation Yrotation
                                    JOINT RightFinger02
                                    {
                                        OFFSET  -2.639460   0.000000   0.000000
                                        CHANNELS 3 Zrotation Xrotation Yrotation
                                        End Site
                                        {
                                            OFFSET  -2.582190   0.000000   0.000000
                                        }
                                    }
                                }
                            }
                            JOINT RightFinger1
                            {
                                OFFSET  -8.364480   0.000000   3.252850
                                CHANNELS 3 Zrotation Xrotation Yrotation
                                JOINT RightFinger11
                                {
                                    OFFSET  -4.646930   0.000000   0.000000
                                    CHANNELS 3 Zrotation Xrotation Yrotation
                                    JOINT RightFinger12
                                    {
                                        OFFSET  -2.323470   0.000000   0.000000
                                        CHANNELS 3 Zrotation Xrotation Yrotation
                                        End Site
                                        {
                                            OFFSET  -2.273050   0.000000   0.000000
                                        }
                                    }
                                }
                            }
                            JOINT RightFinger2
                            {
                                OFFSET  -8.364480   0.000000   1.078090
                                CHANNELS 3 Zrotation Xrotation Yrotation
                                JOINT RightFinger21
                                {
                                    OFFSET  -5.111620   0.000000   0.000000
                                    CHANNELS 3 Zrotation Xrotation Yrotation
                                    JOINT RightFinger22
                                    {
                                        OFFSET  -2.788160   0.000000   0.000000
                                        CHANNELS 3 Zrotation Xrotation Yrotation
                                        End Site
                                        {
                                            OFFSET  -2.727660   0.000000   0.000000
                                        }
                                    }
                                }
                            }
                            JOINT RightFinger3
                            {
                                OFFSET  -7.899780   0.000000  -1.078090
                                CHANNELS 3 Zrotation Xrotation Yrotation
                                JOINT RightFinger31
                                {
                                    OFFSET  -4.646930   0.000000   0.000000
                                    CHANNELS 3 Zrotation Xrotation Yrotation
                                    JOINT RightFinger32
                                    {
                                        OFFSET  -2.323470   0.000000   0.000000
                                        CHANNELS 3 Zrotation Xrotation Yrotation
                                        End Site
                                        {
                                            OFFSET  -2.273050   0.000000   0.000000
                                        }
                                    }
                                }
                            }
                            JOINT RightFinger4
                            {
                                OFFSET  -7.435090   0.000000  -3.252850
                                CHANNELS 3 Zrotation Xrotation Yrotation
                                JOINT RightFinger41
                                {
                                    OFFSET  -3.717550   0.000000   0.000000
                                    CHANNELS 3 Zrotation Xrotation Yrotation
                                    JOINT RightFinger42
                                    {
                                        OFFSET  -1.858770   0.000000   0.000000
                                        CHANNELS 3 Zrotation Xrotation Yrotation
                                        End Site
                                        {
                                            OFFSET  -1.818440   0.000000   0.000000
                                        }
                                    }
                                }
                            }
                        }
                    }
                }
            }
        }
    }
    JOINT LeftHip
    {
        OFFSET   9.783040   0.000000   0.000000
        CHANNELS 3 Zrotation Xrotation Yrotation
        JOINT LeftKnee
        {
            OFFSET   0.000032 -41.789100  -0.002222
            CHANNELS 3 Zrotation Xrotation Yrotation
            JOINT LeftAnkle
            {
                OFFSET   0.000087 -41.133200  -0.000135
                CHANNELS 3 Zrotation Xrotation Yrotation
                JOINT LeftToe
                {
                    OFFSET   0.000000  -6.358960  14.674500
                    CHANNELS 3 Zrotation Xrotation Yrotation
                    End Site
                    {
                        OFFSET   0.000000   0.000000   3.913200
                    }
                }
            }
        }
    }
    JOINT RightHip
    {
        OFFSET  -9.783040   0.000000   0.000000
        CHANNELS 3 Zrotation Xrotation Yrotation
        JOINT RightKnee
        {
            OFFSET   0.000047 -41.789100  -0.000896
            CHANNELS 3 Zrotation Xrotation Yrotation
            JOINT RightAnkle
            {
                OFFSET  -0.000117 -41.133300  -0.000248
                CHANNELS 3 Zrotation Xrotation Yrotation
                JOINT RightToe
                {
                    OFFSET   0.000000  -6.358970  14.674500
                    CHANNELS 3 Zrotation Xrotation Yrotation
                    End Site
                    {
                        OFFSET   0.000000   0.000000   3.913200
                    }
                }
            }
        }
    }
}
MOTION
Frames: 5
Frame Time:   0.016667
  0.467084  89.555300   0.562522  -2.456630  -3.634410   4.485440   0.138186   3.654510   1.018980   0.211796   7.310720   2.034970   1.353340  -9.581310   2.505180   1.540700 -19.422300  48.415500  -6.298710   1.626380  -1.910670 -70.437900  15.921000  -6.555020  -2.367170  -4.659550 -12.306900   5.016070  -7.332350   8.437050  41.488400  29.374700 -68.457600 -14.409000   0.000419   0.000142  -2.204520   0.001873  -0.000035 -26.949500   5.137270  -9.985210 -22.416900   0.001506  -0.001479 -15.691900  -0.002966   0.000565 -27.155800   2.916930  -5.665220 -28.263300  -0.001645  -0.001011 -18.823400  -0.001507  -0.001621 -27.416800   0.289048  -0.557150 -28.810100  -0.002968   0.000520 -19.187500  -0.003081  -0.000108 -31.464000   0.327661  -0.535383 -47.198000   0.006652   0.024705 -31.433800  -0.014178   0.001366   3.984260  -0.248151  10.209600  75.039100   9.773450   2.020520   0.114780  -4.112050  11.781900 -13.598500  -8.244770   2.475720 -40.985000  34.390800  72.133800  26.683800  -0.007545  -0.001167   8.341890   0.003332   0.001125  34.444900   7.757550  11.132100  28.803000  -0.014982  -0.007801  20.162100  -0.016621   0.002046  28.425700   4.272760   7.838720  39.354900  -0.017455   0.004812  26.210400  -0.011662   0.005497  28.674400   2.807120   5.117050  43.032700  -0.024432   0.004421  28.659800  -0.015375   0.004424  41.529300  -1.534390  -1.731780  62.329000  -0.002395  -0.003947  41.511000  -0.015880   0.023513   2.409050   8.029740   1.743230  -0.459621   0.912612   7.616160  -1.796260  -4.598340   2.262950   0.000000   0.000000   0.000000   1.007550   2.953650  -4.326680   1.412020   5.739780  -8.598090  -4.244710  -3.653810  -3.582270   0.000000   0.000000   0.000000
  0.507076  89.543900   0.576566  -2.476030  -3.604760   4.497230   0.175210   3.654220   0.962583   0.289643   7.310870   1.919810   1.184350  -9.613260   2.220030   1.390350 -19.528900  48.040100  -6.384320   1.609190  -1.857700 -70.422300  15.998900  -6.579040  -2.387840  -4.665760 -12.310100   4.986370  -7.243080   8.413210  41.589800  29.540300 -68.611100 -14.342000   0.000393   0.000132  -2.170980   0.001889   0.000000 -26.915300   5.145020 -10.017800 -22.390700   0.001723  -0.001358 -15.673500  -0.003501   0.000768 -27.141500   2.930460  -5.695110 -28.211200  -0.001829  -0.000950 -18.788700  -0.001533  -0.001711 -27.406200   0.305103  -0.588394 -28.761500  -0.003129   0.000423 -19.155100  -0.003192  -0.000310 -31.429800   0.345639  -0.565588 -47.147100   0.006966   0.029788 -31.400000  -0.016100   0.001418   4.003290  -0.305678  10.262700  74.930900   9.867310   2.003490   0.118957  -4.154310  11.698900 -13.562100  -8.173110   2.466580 -40.962000  34.311900  72.027800  26.666700  -0.008026  -0.001261   8.333360   0.003300   0.000971  34.408500   7.756410  11.147100  28.772600  -0.022256  -0.007770  20.140800  -0.018704   0.002605  28.422900   4.283910   7.860380  39.290400  -0.031100   0.004751  26.167400  -0.019247   0.005487  28.672000   2.828100   5.155500  42.975700  -0.036161   0.004362  28.621800  -0.022757   0.004379  41.490100  -1.522310  -1.720530  62.269600  -0.002394  -0.003947  41.471500  -0.021066   0.034322   2.423710   7.989810   1.748990  -0.478531   0.938552   7.618540  -1.814720  -4.604710   2.240220  -0.000000   0.000000   0.000000   1.003310   2.925800  -4.320400   1.416750   5.749590  -8.632250  -4.231910  -3.653360  -3.567330  -0.000000   0.000000   0.000000
  0.546517  89.530900   0.590962  -2.488410  -3.582780   4.517210   0.216248   3.642220   0.895892   0.376391   7.287480   1.783410   0.953656  -9.575510   1.924190   1.091990 -19.467500  47.587500  -6.448260   1.626440  -1.818380 -70.406100  16.119500  -6.607110  -2.407950  -4.686780 -12.308700   4.966100  -7.243460   8.414480  41.548100  29.466600 -68.542500 -14.378900   0.000360   0.000129  -2.189470   0.001896  -0.000028 -26.921500   5.131630  -9.989670 -22.393800   0.001962  -0.001250 -15.675700  -0.004003   0.001001 -27.142000   2.915190  -5.665420 -28.209500  -0.002027  -0.000879 -18.787600  -0.001571  -0.001811 -27.406300   0.291877  -0.562986 -28.761700  -0.003301   0.000321 -19.155300  -0.003289  -0.000526 -31.425300   0.330636  -0.541130 -47.140700   0.006872   0.022785 -31.395700  -0.011292   0.001482   4.019580  -0.338562  10.284800  74.842300   9.872580   2.023520   0.104306  -4.153100  11.600800 -13.576500  -8.142420   2.457750 -40.953900  34.229000  71.904500  26.638500  -0.008498  -0.001372   8.319250   0.003277   0.000837  34.380300   7.768440  11.180400  28.751300  -0.024671  -0.007736  20.125900  -0.018056   0.003074  28.418300   4.301650   7.893890  39.255400  -0.034324   0.004687  26.144100  -0.020040   0.005472  28.669300   2.851450   5.198190  42.935000  -0.037965   0.004302  28.594700  -0.023847   0.004340  41.467100  -1.515260  -1.713980  62.234900  -0.002394  -0.003947  41.448400  -0.021230   0.036607   2.425240   7.962280   1.758200  -0.494916   0.952717   7.623530  -1.830370  -4.602390   2.206390  -0.000000   0.000000  -0.000000   0.991631   2.892270  -4.304460   1.419060   5.770400  -8.664280  -4.216240  -3.652590  -3.571990  -0.000000   0.000000   0.000000
  0.584601  89.516700   0.604931  -2.493480  -3.567200   4.530820   0.257223   3.620220   0.824851   0.463457   7.243770   1.638290   0.687831  -9.485800   1.633660   0.690067 -19.252200  47.093100  -6.492560   1.664150  -1.780140 -70.386100  16.267700  -6.643630  -2.423350  -4.722410 -12.304100   4.953940  -7.246090   8.423340  41.491100  29.355300 -68.425200 -14.415900   0.000327   0.000129  -2.207960   0.001897  -0.000057 -26.927600   5.118230  -9.961540 -22.396900   0.002099  -0.001151 -15.677900  -0.004469   0.001135 -27.143700   2.899920  -5.635740 -28.207800  -0.002241  -0.000794 -18.786400  -0.001624  -0.001922 -27.406300   0.278651  -0.537578 -28.761900  -0.003485   0.000216 -19.155400  -0.003375  -0.000747 -31.422500   0.315633  -0.516672 -47.136200   0.006217   0.012156 -31.392700  -0.004472   0.001519   4.032020  -0.349394  10.289200  74.772900   9.873130   2.060180   0.078457  -4.135270  11.540300 -13.618000  -8.132510   2.453200 -40.942400  34.169400  71.827900  26.607800  -0.008955  -0.001479   8.303920   0.003256   0.000705  34.361500   7.791270  11.214800  28.740700  -0.025149  -0.007699  20.118500  -0.015858   0.003431  28.414200   4.319020   7.926200  39.240300  -0.034785   0.004624  26.134000  -0.020153   0.005457  28.667900   2.868070   5.228690  42.913900  -0.038223   0.004243  28.580600  -0.024002   0.004304  41.457600  -1.512340  -1.711270  62.220400  -0.002395  -0.003947  41.438800  -0.021253   0.036933   2.424300   7.942450   1.771390  -0.510138   0.960785   7.633260  -1.843450  -4.595600   2.168790   0.000000   0.000000   0.000000   0.975619   2.867630  -4.282120   1.417040   5.790060  -8.693780  -4.198820  -3.652080  -3.576650   0.000000   0.000000  -0.000000
  0.620272  89.502400   0.618570  -2.494420  -3.557570   4.529190   0.292960   3.595500   0.756807   0.539786   7.194570   1.499590   0.410572  -9.356360   1.353590   0.284298 -18.981800  46.613200  -6.511350   1.716310  -1.738140 -70.350200  16.462600  -6.700450  -2.427730  -4.799810 -12.292700   4.960420  -7.255970   8.448270  41.475900  29.268500 -68.307500 -14.408500   0.000302   0.000129  -2.204260   0.001894  -0.000058 -26.914600   5.119040  -9.966120 -22.386600   0.002052  -0.001060 -15.670700  -0.004891   0.000796 -27.139100   2.903680  -5.643930 -28.192100  -0.002475  -0.000690 -18.776000  -0.001693  -0.002042 -27.404200   0.287079  -0.553945 -28.753100  -0.003684   0.000109 -19.149500  -0.003451  -0.000967 -31.412600   0.325082  -0.532451 -47.121400   0.004736   0.005249 -31.382900  -0.001536   0.001476   4.037440  -0.334719  10.270200  74.736100   9.816350   2.106460   0.040637  -4.083080  11.540500 -13.700600  -8.190340   2.455550 -40.931100  34.142700  71.832600  26.579600  -0.009391  -0.001564   8.289830   0.003238   0.000560  34.396200   7.819830  11.234500  28.773400  -0.018867  -0.007656  20.141400  -0.010343   0.003645  28.414100   4.328480   7.942410  39.301100  -0.026428   0.004567  26.174500  -0.016209   0.005446  28.668900   2.870840   5.233940  42.972300  -0.028364   0.004186  28.619500  -0.019234   0.004269  41.499300  -1.525230  -1.723260  62.283400  -0.002397  -0.003946  41.480800  -0.015299   0.026564   2.413390   7.925880   1.793830  -0.524752   0.967345   7.652200  -1.853020  -4.584590   2.128310  -0.000000   0.000000   0.000000   0.960270   2.861220  -4.254860   1.410860   5.795600  -8.718480  -4.180460  -3.651910  -3.575570   0.000000   0.000000   0.000000
